<mxfile host="app.diagrams.net" modified="2023-11-18T22:59:30.930Z" agent="Mozilla/5.0 (Windows NT 10.0; Win64; x64) AppleWebKit/537.36 (KHTML, like Gecko) Chrome/119.0.0.0 Safari/537.36 Edg/119.0.0.0" etag="KYviDqxs8uZqIN1p-lFZ" version="22.1.3" type="device">
  <diagram name="Página-1" id="ArVA9JyDZX47nkcbtY8J">
    <mxGraphModel dx="1183" dy="550" grid="1" gridSize="10" guides="1" tooltips="1" connect="1" arrows="1" fold="1" page="1" pageScale="1" pageWidth="827" pageHeight="1169" math="0" shadow="0">
      <root>
        <mxCell id="0" />
        <mxCell id="1" parent="0" />
        <mxCell id="dAqF51qi5I1MGkwewP2U-1" value="&amp;lt;&amp;lt;Component(C4)&amp;gt;&amp;gt;&lt;br style=&quot;border-color: var(--border-color);&quot;&gt;&lt;font style=&quot;font-size: 14px;&quot;&gt;CriarSalaComponente&lt;/font&gt;" style="shape=umlLifeline;perimeter=lifelinePerimeter;whiteSpace=wrap;html=1;container=1;dropTarget=0;collapsible=0;recursiveResize=0;outlineConnect=0;portConstraint=eastwest;newEdgeStyle={&quot;curved&quot;:0,&quot;rounded&quot;:0};size=50;" vertex="1" parent="1">
          <mxGeometry x="322.5" y="30" width="145" height="580" as="geometry" />
        </mxCell>
        <mxCell id="dAqF51qi5I1MGkwewP2U-2" value="&amp;lt;&amp;lt;Component(C4)&amp;gt;&amp;gt;&lt;br style=&quot;border-color: var(--border-color);&quot;&gt;CriarSalaComponente" style="shape=umlLifeline;perimeter=lifelinePerimeter;whiteSpace=wrap;html=1;container=1;dropTarget=0;collapsible=0;recursiveResize=0;outlineConnect=0;portConstraint=eastwest;newEdgeStyle={&quot;curved&quot;:0,&quot;rounded&quot;:0};size=60;" vertex="1" parent="1">
          <mxGeometry x="332.5" y="610" width="125" height="50" as="geometry" />
        </mxCell>
        <mxCell id="dAqF51qi5I1MGkwewP2U-3" value="Gestor de Campus" style="shape=umlActor;verticalLabelPosition=bottom;verticalAlign=top;html=1;outlineConnect=0;" vertex="1" parent="1">
          <mxGeometry x="87" y="30" width="50" height="100" as="geometry" />
        </mxCell>
        <mxCell id="dAqF51qi5I1MGkwewP2U-4" value="" style="line;strokeWidth=1;dashed=1;labelPosition=center;verticalLabelPosition=bottom;align=left;verticalAlign=top;spacingLeft=20;spacingTop=15;html=1;whiteSpace=wrap;rotation=-90;" vertex="1" parent="1">
          <mxGeometry x="-83.37" y="345.38" width="390.75" height="10" as="geometry" />
        </mxCell>
        <mxCell id="dAqF51qi5I1MGkwewP2U-5" value="Actor" style="shape=umlActor;verticalLabelPosition=bottom;verticalAlign=top;html=1;outlineConnect=0;textOpacity=0;" vertex="1" parent="1">
          <mxGeometry x="87" y="570" width="50" height="100" as="geometry" />
        </mxCell>
        <mxCell id="dAqF51qi5I1MGkwewP2U-6" value="Seleciona informação para criar uma sala &lt;br&gt;(edificio, piso, categoria, descricao e nome)" style="html=1;verticalAlign=bottom;endArrow=block;curved=0;rounded=0;" edge="1" parent="1" target="dAqF51qi5I1MGkwewP2U-7">
          <mxGeometry x="-0.0072" width="80" relative="1" as="geometry">
            <mxPoint x="112" y="200" as="sourcePoint" />
            <mxPoint x="192" y="200" as="targetPoint" />
            <mxPoint as="offset" />
          </mxGeometry>
        </mxCell>
        <mxCell id="dAqF51qi5I1MGkwewP2U-7" value="" style="html=1;points=[[0,0,0,0,5],[0,1,0,0,-5],[1,0,0,0,5],[1,1,0,0,-5]];perimeter=orthogonalPerimeter;outlineConnect=0;targetShapes=umlLifeline;portConstraint=eastwest;newEdgeStyle={&quot;curved&quot;:0,&quot;rounded&quot;:0};" vertex="1" parent="1">
          <mxGeometry x="390" y="150" width="10" height="310" as="geometry" />
        </mxCell>
        <mxCell id="dAqF51qi5I1MGkwewP2U-8" value="&lt;span style=&quot;color: rgb(0, 0, 0); font-family: Helvetica; font-size: 12px; font-style: normal; font-variant-ligatures: normal; font-variant-caps: normal; font-weight: 400; letter-spacing: normal; orphans: 2; text-align: center; text-indent: 0px; text-transform: none; widows: 2; word-spacing: 0px; -webkit-text-stroke-width: 0px; background-color: rgb(251, 251, 251); text-decoration-thickness: initial; text-decoration-style: initial; text-decoration-color: initial; float: none; display: inline !important;&quot;&gt;Gestor de Campus&lt;/span&gt;" style="text;whiteSpace=wrap;html=1;" vertex="1" parent="1">
          <mxGeometry x="60" y="545" width="130" height="40" as="geometry" />
        </mxCell>
        <mxCell id="dAqF51qi5I1MGkwewP2U-9" value="&amp;lt;&amp;lt;Component(C4)&amp;gt;&amp;gt;&lt;br style=&quot;border-color: var(--border-color);&quot;&gt;&lt;font style=&quot;font-size: 14px;&quot;&gt;SalaService&lt;/font&gt;" style="shape=umlLifeline;perimeter=lifelinePerimeter;whiteSpace=wrap;html=1;container=1;dropTarget=0;collapsible=0;recursiveResize=0;outlineConnect=0;portConstraint=eastwest;newEdgeStyle={&quot;curved&quot;:0,&quot;rounded&quot;:0};size=50;" vertex="1" parent="1">
          <mxGeometry x="502.5" y="30" width="145" height="580" as="geometry" />
        </mxCell>
        <mxCell id="dAqF51qi5I1MGkwewP2U-10" value="&amp;lt;&amp;lt;Component(C4)&amp;gt;&amp;gt;&lt;br style=&quot;border-color: var(--border-color);&quot;&gt;SalaService" style="shape=umlLifeline;perimeter=lifelinePerimeter;whiteSpace=wrap;html=1;container=1;dropTarget=0;collapsible=0;recursiveResize=0;outlineConnect=0;portConstraint=eastwest;newEdgeStyle={&quot;curved&quot;:0,&quot;rounded&quot;:0};size=60;" vertex="1" parent="1">
          <mxGeometry x="512.5" y="610" width="125" height="50" as="geometry" />
        </mxCell>
        <mxCell id="dAqF51qi5I1MGkwewP2U-11" value="" style="html=1;points=[[0,0,0,0,5],[0,1,0,0,-5],[1,0,0,0,5],[1,1,0,0,-5]];perimeter=orthogonalPerimeter;outlineConnect=0;targetShapes=umlLifeline;portConstraint=eastwest;newEdgeStyle={&quot;curved&quot;:0,&quot;rounded&quot;:0};" vertex="1" parent="1">
          <mxGeometry x="570" y="210" width="10" height="100" as="geometry" />
        </mxCell>
        <mxCell id="dAqF51qi5I1MGkwewP2U-12" value="criarSala(edificio, piso, categoria,&lt;br&gt;&amp;nbsp;descricao e nome)" style="html=1;verticalAlign=bottom;endArrow=block;curved=0;rounded=0;" edge="1" parent="1" target="dAqF51qi5I1MGkwewP2U-11">
          <mxGeometry x="-0.0072" width="80" relative="1" as="geometry">
            <mxPoint x="400" y="220" as="sourcePoint" />
            <mxPoint x="678" y="220" as="targetPoint" />
            <mxPoint as="offset" />
          </mxGeometry>
        </mxCell>
        <mxCell id="dAqF51qi5I1MGkwewP2U-13" value="" style="html=1;verticalAlign=bottom;labelBackgroundColor=none;endArrow=block;endFill=1;dashed=1;rounded=0;" edge="1" parent="1">
          <mxGeometry width="160" relative="1" as="geometry">
            <mxPoint x="570" y="294" as="sourcePoint" />
            <mxPoint x="400" y="294" as="targetPoint" />
            <Array as="points">
              <mxPoint x="480" y="294" />
            </Array>
          </mxGeometry>
        </mxCell>
        <mxCell id="dAqF51qi5I1MGkwewP2U-14" value="&lt;span style=&quot;color: rgb(0, 0, 0); font-family: Helvetica; font-size: 11px; font-style: normal; font-variant-ligatures: normal; font-variant-caps: normal; font-weight: 400; letter-spacing: normal; orphans: 2; text-align: center; text-indent: 0px; text-transform: none; widows: 2; word-spacing: 0px; -webkit-text-stroke-width: 0px; background-color: rgb(255, 255, 255); text-decoration-thickness: initial; text-decoration-style: initial; text-decoration-color: initial; float: none; display: inline !important;&quot;&gt;menssagem de sucesso&lt;/span&gt;" style="text;whiteSpace=wrap;html=1;" vertex="1" parent="1">
          <mxGeometry x="424" y="269.75" width="160" height="40" as="geometry" />
        </mxCell>
        <mxCell id="dAqF51qi5I1MGkwewP2U-15" value="&lt;font style=&quot;font-size: 15px;&quot;&gt;alt&lt;/font&gt;" style="shape=umlFrame;whiteSpace=wrap;html=1;pointerEvents=0;recursiveResize=0;container=1;collapsible=0;width=70;align=center;height=20;" vertex="1" parent="1">
          <mxGeometry x="80" y="304" width="340" height="136" as="geometry" />
        </mxCell>
        <mxCell id="dAqF51qi5I1MGkwewP2U-16" value="" style="html=1;verticalAlign=bottom;labelBackgroundColor=none;endArrow=block;endFill=1;dashed=1;rounded=0;" edge="1" parent="dAqF51qi5I1MGkwewP2U-15" source="dAqF51qi5I1MGkwewP2U-7">
          <mxGeometry width="160" relative="1" as="geometry">
            <mxPoint x="308" y="106" as="sourcePoint" />
            <mxPoint x="32.5" y="106" as="targetPoint" />
          </mxGeometry>
        </mxCell>
        <mxCell id="dAqF51qi5I1MGkwewP2U-17" value="Operação não conseguiu ser realizada" style="text;html=1;align=center;verticalAlign=middle;resizable=0;points=[];autosize=1;strokeColor=none;fillColor=none;" vertex="1" parent="dAqF51qi5I1MGkwewP2U-15">
          <mxGeometry x="70" y="81" width="230" height="30" as="geometry" />
        </mxCell>
        <mxCell id="dAqF51qi5I1MGkwewP2U-18" value="Operação realizada com sucesso" style="text;html=1;align=center;verticalAlign=middle;resizable=0;points=[];autosize=1;strokeColor=none;fillColor=none;" vertex="1" parent="dAqF51qi5I1MGkwewP2U-15">
          <mxGeometry x="85" y="21" width="200" height="30" as="geometry" />
        </mxCell>
        <mxCell id="dAqF51qi5I1MGkwewP2U-19" value="" style="html=1;verticalAlign=bottom;labelBackgroundColor=none;endArrow=block;endFill=1;dashed=1;rounded=0;" edge="1" parent="dAqF51qi5I1MGkwewP2U-15" source="dAqF51qi5I1MGkwewP2U-7">
          <mxGeometry width="160" relative="1" as="geometry">
            <mxPoint x="310" y="45.579999999999984" as="sourcePoint" />
            <mxPoint x="32" y="46" as="targetPoint" />
          </mxGeometry>
        </mxCell>
        <mxCell id="dAqF51qi5I1MGkwewP2U-20" value="" style="line;strokeWidth=1;dashed=1;labelPosition=center;verticalLabelPosition=bottom;align=left;verticalAlign=top;spacingLeft=20;spacingTop=15;html=1;whiteSpace=wrap;rotation=-180;" vertex="1" parent="dAqF51qi5I1MGkwewP2U-15">
          <mxGeometry y="63" width="337.5" height="10" as="geometry" />
        </mxCell>
        <mxCell id="dAqF51qi5I1MGkwewP2U-21" value="&amp;lt;&amp;lt;Component(C4)&amp;gt;&amp;gt;&lt;br style=&quot;border-color: var(--border-color);&quot;&gt;&lt;span style=&quot;font-size: 14px;&quot;&gt;SalaModel&lt;/span&gt;" style="shape=umlLifeline;perimeter=lifelinePerimeter;whiteSpace=wrap;html=1;container=1;dropTarget=0;collapsible=0;recursiveResize=0;outlineConnect=0;portConstraint=eastwest;newEdgeStyle={&quot;curved&quot;:0,&quot;rounded&quot;:0};size=50;" vertex="1" parent="1">
          <mxGeometry x="750" y="200" width="145" height="440" as="geometry" />
        </mxCell>
        <mxCell id="dAqF51qi5I1MGkwewP2U-22" value="&amp;lt;&amp;lt;Component(C4)&amp;gt;&amp;gt;&lt;br style=&quot;border-color: var(--border-color);&quot;&gt;SalaModel" style="shape=umlLifeline;perimeter=lifelinePerimeter;whiteSpace=wrap;html=1;container=1;dropTarget=0;collapsible=0;recursiveResize=0;outlineConnect=0;portConstraint=eastwest;newEdgeStyle={&quot;curved&quot;:0,&quot;rounded&quot;:0};size=60;" vertex="1" parent="1">
          <mxGeometry x="760" y="610" width="125" height="50" as="geometry" />
        </mxCell>
        <mxCell id="dAqF51qi5I1MGkwewP2U-24" value="criarDataModel(salaDataModel)" style="html=1;verticalAlign=bottom;endArrow=block;curved=0;rounded=0;" edge="1" parent="1">
          <mxGeometry x="-0.0072" width="80" relative="1" as="geometry">
            <mxPoint x="580" y="230" as="sourcePoint" />
            <mxPoint x="750" y="230" as="targetPoint" />
            <mxPoint as="offset" />
          </mxGeometry>
        </mxCell>
        <mxCell id="dAqF51qi5I1MGkwewP2U-25" value="" style="html=1;verticalAlign=bottom;endArrow=block;curved=0;rounded=0;" edge="1" parent="1">
          <mxGeometry x="-0.0072" width="80" relative="1" as="geometry">
            <mxPoint x="584" y="265.15999999999997" as="sourcePoint" />
            <mxPoint x="980" y="265" as="targetPoint" />
            <mxPoint as="offset" />
          </mxGeometry>
        </mxCell>
        <mxCell id="dAqF51qi5I1MGkwewP2U-26" value="POST" style="text;html=1;align=center;verticalAlign=middle;resizable=0;points=[];autosize=1;strokeColor=none;fillColor=none;" vertex="1" parent="1">
          <mxGeometry x="650" y="238" width="60" height="30" as="geometry" />
        </mxCell>
        <mxCell id="dAqF51qi5I1MGkwewP2U-33" value="" style="ellipse;html=1;fillColor=#000000;" vertex="1" parent="1">
          <mxGeometry x="981" y="259.75" width="10" height="10" as="geometry" />
        </mxCell>
        <mxCell id="dAqF51qi5I1MGkwewP2U-34" value="" style="ellipse;html=1;" vertex="1" parent="1">
          <mxGeometry x="981" y="280.75" width="10" height="10" as="geometry" />
        </mxCell>
        <mxCell id="dAqF51qi5I1MGkwewP2U-35" value="código de resposta HTTP" style="text;whiteSpace=wrap;html=1;" vertex="1" parent="1">
          <mxGeometry x="680" y="264" width="160" height="40" as="geometry" />
        </mxCell>
        <mxCell id="dAqF51qi5I1MGkwewP2U-37" value="" style="html=1;verticalAlign=bottom;labelBackgroundColor=none;endArrow=block;endFill=1;dashed=1;rounded=0;" edge="1" parent="1">
          <mxGeometry width="160" relative="1" as="geometry">
            <mxPoint x="980" y="287" as="sourcePoint" />
            <mxPoint x="580.810344827586" y="287" as="targetPoint" />
          </mxGeometry>
        </mxCell>
      </root>
    </mxGraphModel>
  </diagram>
</mxfile>
